<svg width="17" height="17" viewBox="0 0 17 17" fill="none" xmlns="http://www.w3.org/2000/svg">
<g id="javascript-js 1" clip-path="url(#clip0_142_1395)">
<path id="Vector" d="M0 0H17V17H0V0Z" fill="#F7DF1E"/>
<path id="Vector_2" d="M4.46992 14.2064L5.77088 13.4191C6.02186 13.8641 6.25017 14.2406 6.79782 14.2406C7.32276 14.2406 7.65372 14.0353 7.65372 13.2366V7.80465H9.25129V13.2591C9.25129 14.9138 8.28138 15.667 6.8663 15.667C5.58831 15.667 4.84646 15.0051 4.46989 14.2063" fill="black"/>
<path id="Vector_3" d="M10.119 14.0353L11.4198 13.2821C11.7623 13.8413 12.2073 14.2521 12.9947 14.2521C13.6566 14.2521 14.0787 13.9211 14.0787 13.4647C14.0787 12.9169 13.6451 12.7229 12.9148 12.4035L12.5155 12.2322C11.3629 11.7416 10.5983 11.1254 10.5983 9.82446C10.5983 8.62626 11.5112 7.7133 12.9376 7.7133C13.9533 7.7133 14.6836 8.06709 15.2085 8.99143L13.9646 9.79019C13.6907 9.29954 13.3941 9.10558 12.9377 9.10558C12.4698 9.10558 12.1731 9.40227 12.1731 9.79019C12.1731 10.2695 12.4698 10.4635 13.1544 10.7602L13.5538 10.9314C14.9118 11.5134 15.6763 12.1067 15.6763 13.4418C15.6763 14.8798 14.5466 15.6671 13.0289 15.6671C11.5455 15.6671 10.5868 14.9596 10.119 14.0353Z" fill="black"/>
</g>
<defs>
<clipPath id="clip0_142_1395">
<rect width="17" height="17" fill="white"/>
</clipPath>
</defs>
</svg>
