<svg width="13" height="13" viewBox="0 0 13 13" fill="none" xmlns="http://www.w3.org/2000/svg">
<g id="java-original 1">
<path id="Vector" d="M4.8361 9.96531C4.8361 9.96531 4.35195 10.247 5.18111 10.3421C6.18577 10.4569 6.69916 10.4404 7.80599 10.2312C7.80599 10.2312 8.09758 10.4135 8.50403 10.5715C6.02195 11.6349 2.88681 10.5099 4.8361 9.96531ZM4.53263 8.57746C4.53263 8.57746 3.98948 8.97955 4.81934 9.06547C5.89255 9.17627 6.73989 9.18531 8.20686 8.90297C8.20686 8.90297 8.40927 9.10863 8.72808 9.22096C5.72772 10.0985 2.38591 9.29002 4.53263 8.57746Z" fill="#0074BD"/>
<path id="Vector_2" d="M7.08926 6.22284C7.70117 6.92717 6.92879 7.56041 6.92879 7.56041C6.92879 7.56041 8.48158 6.75899 7.76861 5.75494C7.10246 4.81904 6.5918 4.35419 9.35654 2.75072C9.35654 2.75082 5.01667 3.83439 7.08926 6.22284Z" fill="#EA2D2E"/>
<path id="Vector_3" d="M10.3719 10.992C10.3719 10.992 10.7303 11.2876 9.977 11.516C8.54476 11.9498 4.01467 12.0807 2.75651 11.5333C2.30446 11.3365 3.1525 11.0636 3.41931 11.006C3.69749 10.9458 3.85633 10.9568 3.85633 10.9568C3.35329 10.6026 0.605011 11.6525 2.46056 11.9536C7.5205 12.7738 11.6842 11.5842 10.3719 10.992ZM5.06919 7.13923C5.06919 7.13923 2.76514 7.68655 4.25334 7.88551C4.88181 7.96961 6.13407 7.95031 7.30133 7.8524C8.255 7.77227 9.21203 7.60114 9.21203 7.60114C9.21203 7.60114 8.87606 7.74526 8.63272 7.91121C6.29251 8.52678 1.77278 8.24007 3.0741 7.61079C4.17422 7.0787 5.06919 7.13923 5.06919 7.13923ZM9.20248 9.44948C11.5812 8.21376 10.4813 7.02619 9.71354 7.18615C9.52586 7.22526 9.44166 7.25928 9.44166 7.25928C9.44166 7.25928 9.51154 7.14969 9.64479 7.10257C11.1634 6.56886 12.3312 8.67709 9.15495 9.51214C9.15495 9.51194 9.19141 9.47893 9.20248 9.44948Z" fill="#0074BD"/>
<path id="Vector_4" d="M7.76861 0.16118C7.76861 0.16118 9.08567 1.47906 6.51909 3.50492C4.46082 5.13053 6.04977 6.05719 6.51838 7.11638C5.31679 6.03241 4.43543 5.07802 5.02663 4.18986C5.89478 2.88641 8.29988 2.25418 7.76861 0.16118Z" fill="#EA2D2E"/>
<path id="Vector_5" d="M5.30298 12.799C7.5857 12.945 11.092 12.7178 11.175 11.6375C11.175 11.6375 11.0155 12.047 9.2883 12.3719C7.33972 12.7388 4.93594 12.696 3.51071 12.4607C3.51071 12.4608 3.8027 12.7025 5.30298 12.799Z" fill="#0074BD"/>
</g>
</svg>
