<svg width="13" height="15" viewBox="0 0 13 15" fill="none" xmlns="http://www.w3.org/2000/svg">
<g id="mysql-original-wordmark 1">
<path id="Vector" d="M0.203227 10.6005H0.620445V8.69941L1.26638 10.3568C1.34255 10.5574 1.44686 10.6283 1.65151 10.6283C1.85616 10.6283 1.9565 10.5574 2.03267 10.3568L2.67861 8.69941V10.6005H3.09583V8.70258C3.09583 8.51742 3.03164 8.42777 2.8992 8.3816C2.58223 8.26746 2.36955 8.36625 2.27327 8.61316L1.63942 10.2489L1.02568 8.61305C0.933359 8.36625 0.716727 8.26746 0.39975 8.38148C0.267313 8.42777 0.203125 8.5173 0.203125 8.70246L0.203227 10.6005ZM3.44287 9.05297H3.85998V10.1004C3.85613 10.1572 3.87583 10.2908 4.10434 10.295C4.22094 10.2971 5.00439 10.295 5.0117 10.295V9.04781H5.42984C5.43177 9.04781 5.42943 10.7487 5.42943 10.7557C5.43166 11.1752 4.97839 11.2663 4.76937 11.2733H3.45191V10.9494C3.45414 10.9494 4.76846 10.9498 4.77171 10.9493C5.04034 10.9166 5.00855 10.7626 5.00845 10.7108V10.5845H4.12171C3.70916 10.5802 3.44632 10.3724 3.44297 10.1333C3.44277 10.1114 3.45201 9.06351 3.44287 9.05297Z" fill="#00618A"/>
<path id="Vector_2" d="M5.75148 10.6005H6.95114C7.0916 10.6005 7.2281 10.5667 7.33636 10.5081C7.51684 10.4125 7.6051 10.2829 7.6051 10.1129V9.76113C7.6051 9.62227 7.50486 9.49254 7.30823 9.40629C7.20393 9.35988 7.07545 9.33539 6.95103 9.33539H6.44546C6.27696 9.33539 6.19673 9.2768 6.17672 9.14719C6.17276 9.13172 6.17276 9.11941 6.17276 9.10395V8.88481C6.17276 8.8725 6.17276 8.86008 6.17672 8.84473C6.19673 8.74594 6.24091 8.71816 6.38939 8.7027L6.42951 8.69965H7.62114V8.37879H6.44962C6.28113 8.37879 6.19287 8.39109 6.11264 8.41887C5.86391 8.5084 5.75544 8.65031 5.75544 8.89723V9.17801C5.75544 9.3941 5.96821 9.57926 6.32521 9.6225C6.36543 9.62543 6.40544 9.62871 6.44556 9.62871H6.87893C6.89497 9.62871 6.91102 9.62871 6.92311 9.63164C7.05554 9.64395 7.1116 9.67184 7.15182 9.72727C7.17589 9.75504 7.18382 9.78293 7.18382 9.81363V10.0945C7.18382 10.1284 7.16381 10.1716 7.12369 10.2087C7.08764 10.2457 7.02741 10.2704 6.94718 10.2766L6.903 10.2797H5.75148V10.6005ZM10.2081 10.042C10.2081 10.3721 10.4208 10.5573 10.85 10.5945C10.8901 10.5975 10.9303 10.6005 10.9704 10.6005H12.0577V10.2797H10.9624C10.7177 10.2797 10.6255 10.2087 10.6255 10.0389V8.37856H10.2082L10.2081 10.042ZM7.87139 10.0587V8.91434C7.87139 8.62371 8.04832 8.44734 8.3981 8.39168C8.43425 8.38547 8.47457 8.38242 8.51063 8.38242H9.30271C9.34293 8.38242 9.37909 8.38547 9.41921 8.39168C9.76899 8.44734 9.94601 8.62359 9.94601 8.91434V10.0587C9.94601 10.2947 9.87085 10.4208 9.69769 10.503L10.1088 10.9311H9.62426L9.29175 10.5847L8.957 10.6092H8.51063C8.43425 10.6092 8.35392 10.5969 8.26546 10.569C8.00007 10.4856 7.87139 10.3247 7.87139 10.0587ZM8.32172 10.0309C8.32172 10.0464 8.32568 10.062 8.32975 10.0805C8.35382 10.2135 8.46249 10.2877 8.62722 10.2877H9.00625L8.6581 9.92496H9.14265L9.44622 10.2414C9.50229 10.2068 9.53905 10.1543 9.55195 10.0867C9.55591 10.0712 9.55591 10.0557 9.55591 10.0403V8.94246C9.55591 8.93016 9.55591 8.91457 9.55195 8.8991C9.52778 8.77535 9.41921 8.70434 9.25843 8.70434H8.62712C8.44228 8.70434 8.32162 8.79715 8.32162 8.94246L8.32172 10.0309Z" fill="#E48E00"/>
<path id="Vector_3" d="M12.4248 7.84594C12.1683 7.83785 11.9724 7.86539 11.8048 7.94684C11.7572 7.97004 11.6813 7.97062 11.6736 8.03941C11.6997 8.07117 11.7038 8.1184 11.7246 8.1573C11.7646 8.23195 11.8321 8.33203 11.8924 8.38441C11.9581 8.44172 12.0259 8.50312 12.0966 8.55281C12.222 8.64117 12.3622 8.69156 12.4832 8.77992C12.5544 8.83219 12.625 8.89781 12.6946 8.95676C12.729 8.9857 12.752 9.03105 12.7968 9.04922V9.0409C12.7733 9.00645 12.7672 8.9591 12.7457 8.92301L12.6508 8.81355C12.5581 8.67152 12.4405 8.54695 12.3153 8.44336C12.2155 8.36074 11.9923 8.24906 11.9507 8.11512L11.9434 8.1068C12.014 8.09754 12.0969 8.06801 12.1621 8.04785C12.2718 8.01387 12.3698 8.02266 12.4831 7.98891L12.6362 7.93828V7.90477C12.579 7.83703 12.5381 7.74727 12.4757 7.68598C12.3125 7.52555 12.1342 7.36523 11.9507 7.23141C11.8489 7.15734 11.7231 7.10918 11.6151 7.04637C11.5789 7.02516 11.5152 7.01426 11.4911 6.97898C11.4343 6.89566 11.4035 6.79008 11.3598 6.69293C11.2684 6.48961 11.1784 6.26742 11.0972 6.05332C11.042 5.90742 11.0058 5.76352 10.9369 5.63262C10.6057 5.00437 10.2492 4.62516 9.69699 4.2525C9.57948 4.17316 9.43801 4.14199 9.28861 4.10109L9.0479 4.08422C8.99905 4.06066 8.94807 3.99152 8.90206 3.95801C8.71905 3.82465 8.24983 3.53461 8.11434 3.91605C8.02883 4.15676 8.24231 4.3916 8.31858 4.51359C8.37211 4.59914 8.44076 4.695 8.47905 4.79121C8.50424 4.85449 8.50851 4.91789 8.53014 4.9848C8.58305 5.14957 8.62926 5.32898 8.69782 5.48121C8.73245 5.55832 8.77074 5.63953 8.81451 5.70844C8.84133 5.75062 8.88744 5.76937 8.89465 5.83465C8.84965 5.9073 8.84701 6.02027 8.82172 6.11227C8.70777 6.52699 8.75073 7.0425 8.91658 7.34941C8.96747 7.44375 9.08731 7.64578 9.25205 7.5682C9.39616 7.50047 9.36407 7.29059 9.4053 7.10531C9.41465 7.06348 9.40886 7.03254 9.42714 7.00441V7.01285L9.55846 7.31578C9.65565 7.49637 9.82801 7.68492 9.97415 7.8123C10.0499 7.87828 10.1096 7.99254 10.2075 8.03109V8.02254H10.2003C10.1812 7.98844 10.1517 7.97438 10.1273 7.94684C10.0702 7.88227 10.0068 7.80211 9.95963 7.72805C9.82669 7.51992 9.70928 7.29199 9.60223 7.0548C9.55115 6.9416 9.50676 6.81668 9.4637 6.70137C9.44704 6.65695 9.44725 6.58969 9.41272 6.56684C9.36539 6.65121 9.29602 6.71953 9.25946 6.81926C9.20116 6.97863 9.19365 7.17305 9.17201 7.37461L9.15739 7.38293C9.05572 7.35469 9.02008 7.23398 8.9823 7.13051C8.88683 6.86883 8.86905 6.4473 8.95315 6.14602C8.97488 6.06797 9.07309 5.82246 9.03328 5.75039C9.01429 5.67855 8.95162 5.63707 8.91669 5.58199C8.87332 5.51414 8.82995 5.42484 8.79999 5.34633C8.72179 5.1423 8.68533 4.9132 8.60316 4.70684C8.56376 4.60816 8.49733 4.50844 8.44269 4.42078C8.38226 4.32352 8.31452 4.25203 8.2676 4.13461C8.25094 4.09289 8.2283 4.02598 8.25297 3.98309C8.2608 3.95414 8.27207 3.94207 8.29685 3.93258C8.3391 3.89496 8.45691 3.94512 8.50099 3.96621C8.61799 4.02234 8.71559 4.07566 8.81472 4.15137C8.86225 4.18781 8.91029 4.25812 8.96787 4.27758H9.03348C9.13616 4.30477 9.25123 4.2859 9.34711 4.31953C9.51672 4.37906 9.66865 4.47152 9.80658 4.57207C10.2269 4.8784 10.5705 5.31434 10.8057 5.83441C10.8435 5.9182 10.86 5.99801 10.8932 6.08684C10.9604 6.2659 11.0451 6.45023 11.112 6.62543C11.1787 6.80016 11.2438 6.97652 11.3381 7.12195C11.3877 7.19836 11.5792 7.23937 11.6663 7.2818C11.7273 7.31156 11.8273 7.34262 11.8851 7.3827C11.9955 7.45957 12.1025 7.55109 12.206 7.63523C12.2577 7.67766 12.4168 7.76988 12.4248 7.84594ZM9.1647 4.6398C9.11128 4.63863 9.0734 4.6466 9.03338 4.65668V4.665H9.04069C9.06619 4.72559 9.11118 4.76449 9.14276 4.81652L9.21579 4.99324L9.223 4.98492C9.26819 4.94824 9.28881 4.88953 9.28861 4.79977C9.27043 4.77773 9.26779 4.7502 9.25215 4.72406C9.23143 4.68891 9.19101 4.66922 9.1647 4.6398Z" fill="#00618A"/>
</g>
</svg>
