<svg width="15" height="15" viewBox="0 0 15 15" fill="none" xmlns="http://www.w3.org/2000/svg">
<g id="nodejs 1" clip-path="url(#clip0_142_1423)">
<g id="Group">
<path id="Vector" d="M7.41535 14.9567C7.36456 14.9567 7.31715 14.9347 7.27314 14.896L6.8228 14.4598C6.75508 14.3991 6.78894 14.377 6.80925 14.366C6.90067 14.3163 6.9176 14.3052 7.01241 14.2169C7.02257 14.2059 7.03611 14.2114 7.04627 14.2224L7.39165 14.5592C7.40519 14.5703 7.42212 14.5703 7.43228 14.5592L8.78329 13.2838C8.79684 13.2728 8.80361 13.2507 8.80361 13.2231V10.6779C8.80361 10.6503 8.79684 10.6282 8.78329 10.6171L7.43228 9.34727C7.41873 9.33623 7.4018 9.33623 7.39165 9.34727L6.04063 10.6171C6.02709 10.6282 6.02031 10.6558 6.02031 10.6779V13.2231C6.02031 13.2452 6.02709 13.2728 6.04063 13.2838L6.4097 13.6317C6.60948 13.7973 6.73476 13.6041 6.73476 13.4108V10.8987C6.73476 10.8656 6.75169 10.8325 6.77539 10.8325H6.94808C6.96839 10.8325 6.98871 10.8601 6.98871 10.8987V13.4108C6.98871 13.847 6.84311 14.101 6.58916 14.101C6.51128 14.101 6.45034 14.101 6.27765 13.9629L5.92212 13.6317C5.83408 13.5488 5.77991 13.3943 5.77991 13.2286V10.6834C5.77991 10.5177 5.83408 10.3632 5.92212 10.2803L7.27314 9.00496C7.35779 8.92766 7.47291 8.92766 7.55756 9.00496L8.90858 10.2803C8.99661 10.3632 9.05079 10.5177 9.05079 10.6834V13.2286C9.05079 13.3943 8.99661 13.5488 8.90858 13.6317L7.55756 14.907C7.51354 14.9402 7.46275 14.9567 7.41535 14.9567ZM7.83183 13.2065C7.23928 13.2065 7.11738 12.7648 7.11738 12.3894C7.11738 12.3563 7.13431 12.3232 7.15801 12.3232H7.33408C7.3544 12.3232 7.37133 12.3452 7.37133 12.3784C7.39842 12.671 7.4763 12.8145 7.83521 12.8145C8.11964 12.8145 8.24153 12.7096 8.24153 12.4612C8.24153 12.3176 8.20767 12.2127 7.76411 12.141C7.39503 12.0802 7.16478 11.9477 7.16478 11.4674C7.16478 11.0202 7.39503 10.7552 7.78104 10.7552C8.21444 10.7552 8.42776 10.9981 8.45485 11.5281C8.45485 11.5447 8.45146 11.5612 8.44469 11.5778C8.43792 11.5888 8.42776 11.5999 8.4176 11.5999H8.24153C8.2246 11.5999 8.20767 11.5778 8.20429 11.5502C8.16365 11.2465 8.05869 11.1472 7.78104 11.1472C7.46952 11.1472 7.43228 11.3238 7.43228 11.4563C7.43228 11.6165 7.4763 11.6661 7.89616 11.7545C8.31264 11.8428 8.50903 11.9698 8.50903 12.4446C8.50564 12.9305 8.26185 13.2065 7.83183 13.2065Z" fill="#539E43"/>
<path id="Vector_2" d="M3.22348 5.00214C3.22348 4.90276 3.18962 4.8089 3.13544 4.75921L1.69978 3.41206C1.67608 3.38997 1.64899 3.37893 1.6219 3.37341H1.60835C1.58127 3.37341 1.55418 3.38997 1.53048 3.41206L0.094811 4.75921C0.0406349 4.8089 0.0067749 4.90276 0.0067749 5.00214L0.0101609 8.624C0.0101609 8.67369 0.0270909 8.72338 0.054179 8.74547C0.081267 8.77307 0.115127 8.77307 0.138829 8.74547L0.992102 7.95043C1.04628 7.90073 1.08014 7.80688 1.08014 7.7075V6.01251C1.08014 5.91313 1.114 5.81927 1.16817 5.76958L1.53048 5.42727C1.55756 5.39966 1.58804 5.38862 1.61851 5.38862C1.64899 5.38862 1.67946 5.39966 1.70316 5.42727L2.06547 5.76958C2.11964 5.81927 2.1535 5.91313 2.1535 6.01251V7.7075C2.1535 7.80688 2.18736 7.90073 2.24154 7.95043L3.09481 8.74547C3.1219 8.77307 3.15576 8.77307 3.18285 8.74547C3.20993 8.72338 3.22687 8.67369 3.22687 8.624L3.22348 5.00214Z" fill="#333333"/>
<path id="Vector_3" d="M10.1241 0.0165634C10.0971 -0.00552113 10.0632 -0.00552113 10.0395 0.0165634C10.0124 0.044169 9.99548 0.0883381 9.99548 0.138028V3.72676C9.99548 3.75989 9.98532 3.79302 9.96501 3.8151C9.94469 3.83166 9.92438 3.83166 9.90406 3.8151L9.54514 3.47831C9.49097 3.42862 9.42663 3.42862 9.37246 3.47831L7.93679 4.83099C7.88261 4.88068 7.84875 4.97454 7.84875 5.07392V7.77375C7.84875 7.87313 7.88261 7.96699 7.93679 8.01668L9.37246 9.36935C9.42663 9.41904 9.49097 9.41904 9.54514 9.36935L10.9808 8.01668C11.035 7.96699 11.0688 7.87313 11.0688 7.77375V1.04349C11.0688 0.938592 11.035 0.844733 10.9808 0.795042L10.1241 0.0165634ZM9.9921 6.88485C9.9921 6.91245 9.98532 6.93454 9.97178 6.94558L9.48081 7.40935C9.46726 7.4204 9.45033 7.4204 9.43679 7.40935L8.94582 6.94558C8.93228 6.93454 8.9255 6.90693 8.9255 6.88485V5.9573C8.9255 5.92969 8.93228 5.90761 8.94582 5.89656L9.43679 5.43279C9.45033 5.42175 9.46726 5.42175 9.48081 5.43279L9.97178 5.89656C9.98532 5.90761 9.9921 5.93521 9.9921 5.9573V6.88485Z" fill="#333333"/>
<g id="Group_2">
<path id="Vector_4" d="M14.9018 5.93521C14.956 5.88552 14.9865 5.79166 14.9865 5.69228V5.03527C14.9865 4.93589 14.9526 4.84203 14.9018 4.79234L13.4763 3.44518C13.4221 3.39549 13.3578 3.39549 13.3036 3.44518L11.8679 4.79786C11.8138 4.84755 11.7799 4.94141 11.7799 5.04079V7.74062C11.7799 7.84 11.8138 7.93386 11.8679 7.98355L13.2935 9.30862C13.3476 9.35831 13.412 9.35831 13.4628 9.30862L14.3262 8.52462C14.3533 8.50254 14.3702 8.45285 14.3702 8.40316C14.3702 8.35347 14.3533 8.30378 14.3262 8.28169L12.8837 6.92902C12.8567 6.90141 12.8397 6.85724 12.8397 6.80755V5.96282C12.8397 5.91313 12.8567 5.86344 12.8837 5.84135L13.3341 5.42175C13.3612 5.39414 13.395 5.39414 13.4221 5.42175L13.8725 5.84135C13.8995 5.86896 13.9165 5.91313 13.9165 5.96282V6.62535C13.9165 6.67504 13.9334 6.72473 13.9605 6.74682C13.9876 6.77442 14.0214 6.77442 14.0485 6.74682L14.9018 5.93521Z" fill="#333333"/>
<path id="Vector_5" d="M13.3679 5.80823C13.3781 5.79718 13.3917 5.79718 13.4018 5.80823L13.6761 6.06772C13.6862 6.07876 13.693 6.09533 13.693 6.11741V6.6364C13.693 6.65848 13.6862 6.67504 13.6761 6.68609L13.4018 6.94558C13.3917 6.95662 13.3781 6.95662 13.3679 6.94558L13.0937 6.68609C13.0835 6.67504 13.0768 6.65848 13.0768 6.6364V6.11741C13.0768 6.09533 13.0835 6.07876 13.0937 6.06772L13.3679 5.80823Z" fill="#539E43"/>
</g>
<g id="Group_3">
<path id="Vector_6" d="M5.62416 3.45623C5.56998 3.40654 5.50565 3.40654 5.45147 3.45623L4.02596 4.79786C3.97179 4.84755 3.94131 4.94141 3.94131 5.04079V7.72958C3.94131 7.82896 3.97517 7.92282 4.02596 7.97251L5.45147 9.31414C5.50565 9.36383 5.56998 9.36383 5.62416 9.31414L7.04967 7.97251C7.10384 7.92282 7.13432 7.82896 7.13432 7.72958V5.04079C7.13432 4.94141 7.10046 4.84755 7.04967 4.79786L5.62416 3.45623Z" fill="url(#paint0_linear_142_1423)"/>
<g id="Mask group">
<mask id="mask0_142_1423" style="mask-type:luminance" maskUnits="userSpaceOnUse" x="3" y="3" width="5" height="7">
<g id="Group_4">
<path id="Vector_7" d="M5.62416 3.45623C5.56998 3.40654 5.50565 3.40654 5.45147 3.45623L4.02596 4.79786C3.97179 4.84755 3.94131 4.94141 3.94131 5.04079V7.72958C3.94131 7.82896 3.97517 7.92282 4.02596 7.97251L5.45147 9.31414C5.50565 9.36383 5.56998 9.36383 5.62416 9.31414L7.04967 7.97251C7.10384 7.92282 7.13432 7.82896 7.13432 7.72958V5.04079C7.13432 4.94141 7.10046 4.84755 7.04967 4.79786L5.62416 3.45623Z" fill="white"/>
</g>
</mask>
<g mask="url(#mask0_142_1423)">
<g id="Group_5">
<path id="Vector_8" d="M7.05305 4.79786L5.62077 3.45623C5.60723 3.44518 5.5903 3.43414 5.57675 3.42862L3.97179 7.91178C3.98533 7.93938 4.00226 7.96147 4.01919 7.97803L5.45147 9.31966C5.4921 9.35831 5.53951 9.36936 5.58352 9.34727L7.0903 4.85307C7.08014 4.83099 7.06659 4.81442 7.05305 4.79786Z" fill="url(#paint1_linear_142_1423)"/>
</g>
</g>
</g>
<g id="Mask group_2">
<mask id="mask1_142_1423" style="mask-type:luminance" maskUnits="userSpaceOnUse" x="3" y="3" width="5" height="7">
<g id="Group_6">
<path id="Vector_9" d="M5.62416 3.45623C5.56998 3.40654 5.50565 3.40654 5.45147 3.45623L4.02596 4.79786C3.97179 4.84755 3.94131 4.94141 3.94131 5.04079V7.72958C3.94131 7.82896 3.97517 7.92282 4.02596 7.97251L5.45147 9.31414C5.50565 9.36383 5.56998 9.36383 5.62416 9.31414L7.04967 7.97251C7.10384 7.92282 7.13432 7.82896 7.13432 7.72958V5.04079C7.13432 4.94141 7.10046 4.84755 7.04967 4.79786L5.62416 3.45623Z" fill="white"/>
</g>
</mask>
<g mask="url(#mask1_142_1423)">
<g id="Group_7">
<g id="Group_8">
<g id="Group_9">
<path id="Vector_10" fill-rule="evenodd" clip-rule="evenodd" d="M7.05643 7.97251C7.09706 7.93386 7.12754 7.86761 7.14108 7.79583L5.56997 3.4231C5.52934 3.41206 5.48532 3.41758 5.44808 3.45623L4.02596 4.79234L5.55982 9.35279C5.58013 9.34727 5.60383 9.33623 5.62415 9.31966L7.05643 7.97251Z" fill="url(#paint2_linear_142_1423)"/>
<path id="Vector_11" fill-rule="evenodd" clip-rule="evenodd" d="M7.05643 7.97251L5.62754 9.31414C5.60722 9.33071 5.5869 9.34175 5.5632 9.34727L5.59029 9.43009L7.17494 7.93386V7.90073L7.13431 7.79031C7.12754 7.86761 7.09706 7.93386 7.05643 7.97251Z" fill="url(#paint3_linear_142_1423)"/>
<path id="Vector_12" fill-rule="evenodd" clip-rule="evenodd" d="M7.05643 7.97251L5.62754 9.31414C5.60722 9.33071 5.5869 9.34175 5.5632 9.34727L5.59029 9.43009L7.17494 7.93386V7.90073L7.13431 7.79031C7.12754 7.86761 7.09706 7.93386 7.05643 7.97251Z" fill="url(#paint4_linear_142_1423)"/>
</g>
</g>
</g>
</g>
</g>
</g>
</g>
</g>
<defs>
<linearGradient id="paint0_linear_142_1423" x1="221.667" y1="107.159" x2="-59.3817" y2="377.979" gradientUnits="userSpaceOnUse">
<stop stop-color="#41873F"/>
<stop offset="0.3288" stop-color="#418B3D"/>
<stop offset="0.6352" stop-color="#419637"/>
<stop offset="0.9319" stop-color="#3FA92D"/>
<stop offset="1" stop-color="#3FAE2A"/>
</linearGradient>
<linearGradient id="paint1_linear_142_1423" x1="138.93" y1="330.574" x2="595.108" y2="178.578" gradientUnits="userSpaceOnUse">
<stop offset="0.1376" stop-color="#41873F"/>
<stop offset="0.4032" stop-color="#54A044"/>
<stop offset="0.7136" stop-color="#66B848"/>
<stop offset="0.9081" stop-color="#6CC04A"/>
</linearGradient>
<linearGradient id="paint2_linear_142_1423" x1="-9.64572" y1="300.137" x2="320.209" y2="300.137" gradientUnits="userSpaceOnUse">
<stop offset="0.0919165" stop-color="#6CC04A"/>
<stop offset="0.2864" stop-color="#66B848"/>
<stop offset="0.5968" stop-color="#54A044"/>
<stop offset="0.8624" stop-color="#41873F"/>
</linearGradient>
<linearGradient id="paint3_linear_142_1423" x1="-161.833" y1="90.2307" x2="168.021" y2="90.2307" gradientUnits="userSpaceOnUse">
<stop offset="0.0919165" stop-color="#6CC04A"/>
<stop offset="0.2864" stop-color="#66B848"/>
<stop offset="0.5968" stop-color="#54A044"/>
<stop offset="0.8624" stop-color="#41873F"/>
</linearGradient>
<linearGradient id="paint4_linear_142_1423" x1="216.077" y1="-338.316" x2="6.13503" y2="336.352" gradientUnits="userSpaceOnUse">
<stop stop-color="#41873F"/>
<stop offset="0.3288" stop-color="#418B3D"/>
<stop offset="0.6352" stop-color="#419637"/>
<stop offset="0.9319" stop-color="#3FA92D"/>
<stop offset="1" stop-color="#3FAE2A"/>
</linearGradient>
<clipPath id="clip0_142_1423">
<rect width="15" height="15" fill="white"/>
</clipPath>
</defs>
</svg>
