<svg width="13" height="13" viewBox="0 0 13 13" fill="none" xmlns="http://www.w3.org/2000/svg">
<g id="postgresql 1" clip-path="url(#clip0_142_1461)">
<path id="Vector" d="M12.9496 7.78452C12.8717 7.55563 12.6675 7.39618 12.4034 7.35789C12.2789 7.33987 12.1363 7.34756 11.9676 7.3813C11.6735 7.44014 11.4553 7.46253 11.296 7.46689C11.8971 6.48278 12.3859 5.36052 12.6672 4.30411C13.1222 2.59598 12.8791 1.81781 12.595 1.4658C11.8431 0.534172 10.7461 0.0336565 9.42254 0.0183138C8.71658 0.00995823 8.09675 0.145131 7.77347 0.242312C7.47242 0.190839 7.14871 0.162075 6.80906 0.156748C6.17248 0.146907 5.60997 0.281469 5.12933 0.558045C4.86318 0.470822 4.43616 0.347818 3.94297 0.2693C2.783 0.0846338 1.84814 0.228541 1.16433 0.696974C0.336295 1.26416 -0.0475807 2.24959 0.0234239 3.62592C0.0459412 4.06291 0.298045 5.39243 0.69495 6.65335C0.923066 7.37807 1.16631 7.97993 1.41794 8.44231C1.77476 9.09797 2.15656 9.4841 2.5852 9.62273C2.82548 9.70038 3.26198 9.75471 3.72113 9.38398C3.77931 9.45228 3.85692 9.5202 3.95999 9.58326C4.09083 9.66329 4.25086 9.72868 4.41064 9.76743C4.98657 9.90705 5.52603 9.87212 5.98625 9.67645C5.98907 9.75581 5.99126 9.83165 5.99313 9.89713C5.99619 10.0034 5.99919 10.1075 6.00321 10.2049C6.03047 10.8635 6.07668 11.3756 6.21358 11.7338C6.22109 11.7536 6.23121 11.7836 6.2419 11.8154C6.31017 12.0182 6.42441 12.3577 6.71494 12.6236C7.01586 12.8989 7.3798 12.9834 7.71312 12.9834C7.88029 12.9834 8.0398 12.9621 8.17968 12.9331C8.67839 12.8294 9.24475 12.6715 9.65444 12.1059C10.0418 11.5711 10.2301 10.7656 10.2642 9.49647C10.2686 9.4606 10.2726 9.42634 10.2766 9.39367C10.2792 9.37163 10.2819 9.3491 10.2847 9.32662L10.3759 9.3344L10.3994 9.33594C10.9074 9.35839 11.5284 9.25393 11.9098 9.08213C12.2112 8.94649 13.177 8.45209 12.9496 7.78452Z" fill="black"/>
<path id="Vector_2" d="M12.0811 7.91437C10.5709 8.21644 10.4671 7.72062 10.4671 7.72062C12.0617 5.42626 12.7282 2.51391 12.153 1.80113C10.5837 -0.143207 7.86713 0.776337 7.8218 0.80021L7.80721 0.802743C7.50884 0.742682 7.17492 0.706902 6.79963 0.700963C6.11627 0.690103 5.59793 0.874682 5.20459 1.16392C5.20459 1.16392 0.358535 -0.771966 0.583919 3.59867C0.631866 4.52849 1.95826 10.6341 3.54032 8.78992C4.11857 8.11557 4.67727 7.54538 4.67727 7.54538C4.95477 7.72414 5.28698 7.81532 5.63524 7.78257L5.6623 7.7603C5.65389 7.84403 5.65773 7.92592 5.67313 8.02287C5.26557 8.46443 5.38533 8.54196 4.5706 8.70459C3.74619 8.86934 4.23049 9.16266 4.5467 9.23931C4.93003 9.33227 5.81688 9.46395 6.41612 8.65052L6.39222 8.74334C6.55191 8.86736 6.66405 9.5501 6.64525 10.169C6.62646 10.7879 6.61391 11.2128 6.73973 11.5447C6.86556 11.8766 6.99097 12.6234 8.06201 12.4008C8.95697 12.2148 9.42074 11.7329 9.48526 10.929C9.53104 10.3575 9.63465 10.442 9.6412 9.93099L9.7243 9.68908C9.82013 8.91435 9.73952 8.66441 10.2909 8.78066L10.4249 8.79207C10.8307 8.80998 11.3618 8.72878 11.6736 8.58828C12.3448 8.2862 12.7429 7.78184 12.0811 7.91437H12.0811Z" fill="#336791"/>
<g id="Group">
<path id="Vector_3" d="M5.48826 4.01449C5.35219 3.99612 5.22892 4.01312 5.16656 4.05889C5.13147 4.08466 5.12063 4.1145 5.11771 4.13505C5.10988 4.18946 5.14921 4.24961 5.17335 4.28065C5.24168 4.36848 5.34154 4.42886 5.44037 4.44217C5.45469 4.44409 5.46892 4.44502 5.4831 4.44502C5.64792 4.44502 5.79774 4.32059 5.81095 4.22874C5.82746 4.11371 5.65525 4.03703 5.48826 4.01449Z" fill="white"/>
<path id="Vector_4" d="M9.99683 4.01813C9.98386 3.92797 9.81834 3.90226 9.66132 3.92343C9.50454 3.94462 9.35247 4.01324 9.36517 4.10361C9.37538 4.17389 9.50619 4.29387 9.66111 4.29384C9.67417 4.29384 9.68738 4.29299 9.70068 4.29119C9.80408 4.2773 9.87994 4.21363 9.91597 4.17692C9.97088 4.12102 10.0026 4.05866 9.99683 4.01813Z" fill="white"/>
<path id="Vector_5" d="M12.5837 7.88004C12.5261 7.71118 12.3408 7.65683 12.0328 7.71852C11.1185 7.9015 10.7911 7.77474 10.6835 7.69797C11.3942 6.64808 11.9789 5.37906 12.2943 4.195C12.4437 3.63413 12.5262 3.11326 12.533 2.68873C12.5404 2.22269 12.4586 1.88028 12.2898 1.6711C11.6092 0.827809 10.6103 0.375475 9.40122 0.363044C8.57 0.35399 7.86771 0.560286 7.73155 0.61828C7.44483 0.549136 7.13226 0.506689 6.79201 0.501274C6.16798 0.491492 5.62861 0.63636 5.18202 0.931627C4.98804 0.861638 4.48671 0.694761 3.87367 0.599007C2.81374 0.433498 1.9715 0.558889 1.37044 0.971803C0.653245 1.46452 0.322151 2.34525 0.38631 3.5895C0.407897 4.00815 0.653846 5.29591 1.04204 6.52921C1.55301 8.15242 2.1084 9.07136 2.69283 9.26036C2.76123 9.28249 2.84013 9.29798 2.92707 9.29798C3.14027 9.29798 3.40162 9.20478 3.67357 8.88777C4.12527 8.36082 4.547 7.91926 4.70246 7.75881C4.9322 7.87841 5.18454 7.94517 5.44271 7.95186C5.44316 7.95841 5.44385 7.96496 5.44445 7.97149C5.39266 8.03105 5.35018 8.08325 5.31397 8.12782C5.13512 8.34798 5.09789 8.3938 4.52217 8.50877C4.35843 8.54152 3.92342 8.62846 3.91709 8.9241C3.91015 9.24711 4.4312 9.38278 4.49059 9.39716C4.69748 9.44738 4.89677 9.47216 5.08685 9.47216C5.54914 9.47213 5.95592 9.32482 6.28104 9.03977C6.27102 10.1913 6.32055 11.3261 6.46313 11.6718C6.57989 11.9549 6.8652 12.6466 7.76641 12.6465C7.8986 12.6465 8.04418 12.6316 8.20429 12.5983C9.1448 12.4028 9.5532 11.9997 9.71121 11.1111C9.79576 10.6361 9.94086 9.502 10.0091 8.89368C10.1531 8.93723 10.3385 8.95718 10.5389 8.95715C10.957 8.95715 11.4393 8.87103 11.7419 8.73487C12.0817 8.58185 12.6949 8.20628 12.5837 7.88004ZM10.3439 3.76924C10.3408 3.94884 10.3153 4.11188 10.2883 4.28207C10.2593 4.46511 10.2292 4.65435 10.2216 4.88408C10.2141 5.10764 10.2429 5.34008 10.2708 5.56483C10.327 6.01883 10.3848 6.48624 10.1613 6.94745C10.1265 6.88763 10.093 6.82235 10.0622 6.75007C10.0345 6.68476 9.97416 6.57987 9.89066 6.43468C9.56569 5.86959 8.80473 4.54628 9.19427 4.00628C9.31028 3.84552 9.60475 3.6803 10.3439 3.76924ZM9.44797 0.726727C10.5313 0.749931 11.3883 1.14293 11.995 1.89475C12.4604 2.47143 11.948 5.09541 10.4645 7.35912C10.4498 7.34107 10.4349 7.32284 10.4195 7.30415C10.4133 7.29667 10.4071 7.28907 10.4007 7.28138C10.7841 6.66747 10.7091 6.06008 10.6424 5.52154C10.615 5.30054 10.5891 5.0918 10.5957 4.89575C10.6025 4.68788 10.6308 4.50968 10.6582 4.33733C10.6919 4.12492 10.7262 3.90517 10.7167 3.64609C10.7238 3.61893 10.7266 3.58682 10.7229 3.54871C10.6988 3.30026 10.4063 2.55679 9.81011 1.88378C9.48403 1.51573 9.00843 1.1038 8.35909 0.825974C8.6384 0.769844 9.02035 0.717498 9.44797 0.726727ZM3.3858 8.65574C3.0862 9.00504 2.87928 8.93811 2.81125 8.91613C2.36789 8.77271 1.85351 7.86412 1.39998 6.42327C1.00755 5.17655 0.778202 3.9229 0.760068 3.57136C0.702754 2.45958 0.980677 1.68473 1.58615 1.26835C2.57151 0.590739 4.19156 0.996316 4.84252 1.20203C4.83315 1.21097 4.82342 1.21935 4.81415 1.22844C3.74595 2.27457 3.77129 4.06189 3.77391 4.17112C3.77382 4.21328 3.77745 4.27296 3.78246 4.35506C3.80084 4.65566 3.83503 5.21515 3.74367 5.84878C3.65874 6.43756 3.8459 7.01386 4.2571 7.42989C4.29967 7.47295 4.3441 7.51339 4.39001 7.55144C4.20696 7.74152 3.80918 8.16183 3.3858 8.65574ZM4.52731 7.17879C4.19588 6.84349 4.04537 6.37707 4.11431 5.89903C4.2108 5.22968 4.17516 4.64675 4.15604 4.33357C4.15337 4.28976 4.151 4.25136 4.14958 4.22105C4.30564 4.0869 5.02881 3.71113 5.54452 3.82572C5.7799 3.87801 5.92326 4.03339 5.98288 4.30071C6.29146 5.68455 6.02375 6.26134 5.80863 6.72482C5.76429 6.82032 5.7224 6.91057 5.68662 7.00396L5.65891 7.07613C5.58871 7.25865 5.52341 7.42832 5.48294 7.58946C5.13065 7.58841 4.78791 7.4425 4.52731 7.17879ZM4.58138 9.0451C4.47852 9.02018 4.38599 8.97688 4.3317 8.94099C4.37704 8.92029 4.45774 8.89216 4.59768 8.86422C5.27497 8.72898 5.37954 8.63358 5.60796 8.35235C5.66035 8.28789 5.7197 8.21479 5.80191 8.12576C5.80194 8.1257 5.80197 8.12567 5.802 8.12564C5.92446 7.99271 5.98045 8.01524 6.08202 8.05609C6.16434 8.08913 6.24451 8.18917 6.27702 8.29927C6.29239 8.35127 6.30969 8.44999 6.25315 8.52676C5.776 9.17459 5.08072 9.16627 4.58138 9.0451ZM8.12584 12.2435C7.2973 12.4157 7.00394 12.0057 6.81062 11.5371C6.68585 11.2345 6.62454 9.87017 6.66804 8.36353C6.66861 8.34347 6.66567 8.32411 6.65997 8.30591C6.65501 8.27077 6.64739 8.23522 6.63682 8.19944C6.57209 7.98022 6.41444 7.79683 6.22529 7.72082C6.15014 7.69063 6.01219 7.63523 5.84643 7.67633C5.8818 7.53511 5.9431 7.37565 6.00955 7.20295L6.03744 7.13029C6.06884 7.04839 6.1082 6.96355 6.14987 6.87377C6.37499 6.3888 6.68329 5.72458 6.34869 4.22399C6.22334 3.66196 5.80482 3.38751 5.17034 3.45124C4.78995 3.48941 4.44198 3.63823 4.26842 3.72356C4.2311 3.7419 4.19696 3.75961 4.16508 3.77687C4.2135 3.21056 4.39655 2.15226 5.0812 1.48268C5.51224 1.06112 6.08634 0.852933 6.78582 0.864142C8.16403 0.886035 9.04782 1.57189 9.5466 2.14341C9.97638 2.63592 10.2091 3.13201 10.302 3.39956C9.60352 3.33071 9.12846 3.46443 8.88762 3.79827C8.36372 4.52447 9.17425 5.93402 9.5638 6.61143C9.63522 6.7356 9.69689 6.84288 9.71629 6.88847C9.84313 7.18659 10.0074 7.38561 10.1273 7.53091C10.164 7.57543 10.1997 7.6186 10.2268 7.65631C10.0153 7.71546 9.63525 7.85209 9.66987 8.53512C9.64195 8.87787 9.44332 10.4825 9.34244 11.0494C9.20926 11.7984 8.92503 12.0774 8.12584 12.2435ZM11.5843 8.40571C11.3679 8.50309 11.0059 8.57614 10.662 8.5918C10.2822 8.60907 10.0888 8.55055 10.0433 8.51457C10.022 8.08893 10.1854 8.04444 10.3583 7.99737C10.3854 7.98994 10.412 7.98275 10.4375 7.97408C10.4534 7.98662 10.4709 7.99908 10.4899 8.01128C10.7952 8.20669 11.3398 8.22777 12.1085 8.07391C12.1113 8.07332 12.1142 8.0728 12.117 8.07225C12.0133 8.16625 11.8359 8.29243 11.5843 8.40571Z" fill="white"/>
</g>
</g>
<defs>
<clipPath id="clip0_142_1461">
<rect width="13" height="13" fill="white"/>
</clipPath>
</defs>
</svg>
