<svg width="16" height="16" viewBox="0 0 16 16" fill="none" xmlns="http://www.w3.org/2000/svg">
<path id="Vector" d="M13.1552 5.1859C12.9892 5.12169 12.8172 5.06093 12.6402 5.00347C12.6693 4.86996 12.696 4.73818 12.7197 4.60863C13.1096 2.48147 12.8547 0.767819 11.9842 0.203611C11.1495 -0.33739 9.78446 0.22669 8.40581 1.57521C8.27324 1.70488 8.14029 1.84217 8.00741 1.98605C7.91886 1.89086 7.83046 1.79886 7.74229 1.71086C6.29742 0.268943 4.84917 -0.338702 3.97954 0.227138C3.14565 0.769707 2.8987 2.38071 3.24966 4.39663C3.28355 4.59135 3.32316 4.79019 3.36796 4.99237C3.16299 5.05776 2.96512 5.12748 2.77578 5.20165C1.08183 5.86544 0 6.90576 0 7.98485C0 9.09934 1.16135 10.2172 2.92573 10.895C3.06497 10.9485 3.20944 10.9991 3.35834 11.0471C3.31001 11.2657 3.26797 11.48 3.23268 11.689C2.89805 13.67 3.15938 15.2429 3.99104 15.782C4.85008 16.3388 6.29178 15.7665 7.69564 14.3873C7.80659 14.2782 7.91795 14.1626 8.0295 14.0414C8.1741 14.1979 8.31846 14.346 8.46206 14.485C9.82185 15.8001 11.1649 16.3312 11.9958 15.7906C12.854 15.2322 13.1329 13.5425 12.7708 11.4867C12.7431 11.3297 12.7109 11.1693 12.6748 11.006C12.776 10.9724 12.8754 10.9376 12.9723 10.9015C14.8066 10.2185 16 9.11423 16 7.98485C16 6.90186 14.8833 5.85452 13.1552 5.1859ZM12.7574 10.1723C12.6699 10.2049 12.5801 10.2363 12.4886 10.2668C12.2862 9.54633 12.0129 8.78017 11.6784 7.9886C11.9976 7.21588 12.2603 6.45951 12.4571 5.74367C12.6208 5.79691 12.7796 5.85305 12.9327 5.9123C14.4133 6.48518 15.3165 7.3322 15.3165 7.98485C15.3165 8.68004 14.3411 9.5825 12.7574 10.1723ZM12.1002 11.6359C12.2603 12.5449 12.2832 13.3668 12.1772 14.0093C12.0819 14.5867 11.8902 14.9716 11.6533 15.1257C11.149 15.4538 10.0707 15.0274 8.90782 13.9026C8.77451 13.7737 8.64023 13.636 8.50552 13.4903C8.95635 12.9361 9.40693 12.2918 9.84669 11.5763C10.6202 11.4992 11.3509 11.373 12.0136 11.2009C12.0463 11.3488 12.0753 11.494 12.1002 11.6359ZM5.45476 15.069C4.96212 15.2646 4.56975 15.2702 4.33257 15.1165C3.82788 14.7893 3.61807 13.5264 3.90427 11.8323C3.93705 11.6383 3.97606 11.439 4.02103 11.2353C4.67647 11.3982 5.40188 11.5154 6.17721 11.586C6.61993 12.2862 7.08352 12.9298 7.5507 13.4933C7.44863 13.604 7.34696 13.7095 7.24586 13.8088C6.62508 14.4187 6.003 14.8514 5.45476 15.069ZM3.14679 10.1681C2.36661 9.86835 1.72232 9.47882 1.28068 9.05376C0.883842 8.67179 0.683486 8.29256 0.683486 7.98485C0.683486 7.33002 1.55209 6.49479 3.00077 5.92709C3.17655 5.8582 3.36056 5.79329 3.55151 5.73231C3.75173 6.46431 4.01437 7.22964 4.33132 8.00355C4.01027 8.78894 3.7439 9.56646 3.54172 10.307C3.40558 10.2631 3.27369 10.2168 3.14679 10.1681ZM3.92044 4.2491C3.61975 2.5219 3.81945 1.21897 4.32198 0.892017C4.85726 0.543717 6.0409 1.04032 7.28843 2.28535C7.36818 2.36492 7.44823 2.44821 7.52852 2.53439C7.06364 3.09542 6.60429 3.73415 6.1655 4.43018C5.41301 4.50857 4.6927 4.6345 4.03043 4.80312C3.98879 4.61487 3.95191 4.42992 3.92044 4.2491ZM10.8221 6.16454C10.6638 5.85718 10.5013 5.55709 10.3356 5.26519C10.8461 5.33772 11.3352 5.43401 11.7945 5.55184C11.6566 6.04857 11.4847 6.56793 11.2824 7.10035C11.1373 6.79066 10.9838 6.4784 10.8221 6.16454ZM8.00763 3.08342C8.3229 3.46732 8.63863 3.89593 8.94917 4.36097C8.63624 4.34436 8.31943 4.33571 8 4.33571C7.68359 4.33571 7.36912 4.34417 7.05812 4.36049C7.36897 3.89977 7.68743 3.47173 8.00763 3.08342ZM5.17512 6.16985C5.01697 6.47808 4.86631 6.78864 4.72346 7.09978C4.52441 6.56921 4.35413 6.04748 4.21504 5.54371C4.67154 5.42889 5.15834 5.335 5.6656 5.26384C5.49757 5.55843 5.33369 5.8608 5.17512 6.16985ZM5.68021 10.7607C5.15612 10.6949 4.662 10.6059 4.20561 10.4942C4.34693 9.98147 4.52097 9.4486 4.72423 8.90661C4.86745 9.21752 5.01871 9.52821 5.17782 9.83711C5.3399 10.1518 5.50785 10.4601 5.68021 10.7607ZM8.02654 12.9404C7.70259 12.5476 7.37945 12.113 7.06387 11.6456C7.37023 11.6591 7.68256 11.666 8 11.666C8.32612 11.666 8.64851 11.6577 8.96583 11.6419C8.65427 12.1177 8.33968 12.553 8.02654 12.9404ZM11.2889 8.87899C11.5028 9.42684 11.6831 9.95692 11.8262 10.461C11.3623 10.5799 10.8614 10.6757 10.3337 10.7469C10.4998 10.4511 10.6637 10.1458 10.8249 9.83183C10.9878 9.51416 11.1426 9.19601 11.2889 8.87899ZM10.2328 9.44803C9.98268 9.93544 9.7259 10.4007 9.46523 10.8399C8.99044 10.8781 8.49993 10.8978 8 10.8978C7.50209 10.8978 7.01776 10.8804 6.55138 10.8464C6.28019 10.4014 6.01784 9.93471 5.76932 9.45222C5.52146 8.97105 5.2934 8.48581 5.08669 8.00329C5.29334 7.51965 5.52086 7.03387 5.7673 6.55356C6.01439 6.07197 6.27438 5.60766 6.54306 5.16548C7.0189 5.12505 7.50684 5.10395 7.99997 5.10395C8.49532 5.10395 8.98392 5.12521 9.45962 5.16599C9.7242 5.60494 9.98248 6.06784 10.2305 6.54949C10.4814 7.03656 10.7119 7.51911 10.9203 7.99237C10.7125 8.47377 10.4826 8.96119 10.2328 9.44803ZM11.6428 0.869162C12.1786 1.21644 12.3869 2.617 12.0503 4.45358C12.0288 4.57076 12.0047 4.69013 11.9784 4.81109C11.3146 4.63895 10.5938 4.51084 9.83908 4.43126C9.39944 3.72759 8.94385 3.08787 8.48655 2.53403C8.6095 2.4011 8.73227 2.27434 8.85454 2.15471C10.0358 0.999315 11.1398 0.543141 11.6428 0.869162ZM8 6.37901C8.78906 6.37901 9.42875 7.09795 9.42875 7.98485C9.42875 8.87172 8.78906 9.5907 8 9.5907C7.21094 9.5907 6.57126 8.87172 6.57126 7.98485C6.57126 7.09795 7.21094 6.37901 8 6.37901Z" fill="#00D8FF"/>
</svg>
