<svg width="14" height="14" viewBox="0 0 14 14" fill="none" xmlns="http://www.w3.org/2000/svg">
<path d="M3.68018 8.10254C3.55322 8.10254 3.44743 8.06022 3.36279 7.97559C3.27816 7.89095 3.23584 7.78516 3.23584 7.6582C3.23584 7.53548 3.27816 7.4318 3.36279 7.34717C3.44743 7.26253 3.55322 7.22021 3.68018 7.22021H6.55566V3.37988C6.55566 3.25716 6.59798 3.15348 6.68262 3.06885C6.76725 2.98421 6.87093 2.94189 6.99365 2.94189C7.12061 2.94189 7.2264 2.98421 7.31104 3.06885C7.39567 3.15348 7.43799 3.25716 7.43799 3.37988V7.6582C7.43799 7.78516 7.39567 7.89095 7.31104 7.97559C7.2264 8.06022 7.12061 8.10254 6.99365 8.10254H3.68018ZM7 13.8916C6.11556 13.8916 5.2819 13.7223 4.49902 13.3838C3.72038 13.0452 3.03271 12.5776 2.43604 11.981C1.83936 11.3843 1.37174 10.6966 1.0332 9.91797C0.694661 9.13509 0.525391 8.30143 0.525391 7.41699C0.525391 6.53255 0.694661 5.70101 1.0332 4.92236C1.37174 4.13949 1.83724 3.44971 2.42969 2.85303C3.02637 2.25635 3.71403 1.78874 4.49268 1.4502C5.27555 1.11165 6.10921 0.942383 6.99365 0.942383C7.87809 0.942383 8.71175 1.11165 9.49463 1.4502C10.2775 1.78874 10.9673 2.25635 11.564 2.85303C12.1606 3.44971 12.6283 4.13949 12.9668 4.92236C13.3053 5.70101 13.4746 6.53255 13.4746 7.41699C13.4746 8.30143 13.3053 9.13509 12.9668 9.91797C12.6283 10.6966 12.1606 11.3843 11.564 11.981C10.9673 12.5776 10.2775 13.0452 9.49463 13.3838C8.71598 13.7223 7.88444 13.8916 7 13.8916ZM7 12.8125C7.74902 12.8125 8.44938 12.6729 9.10107 12.3936C9.75277 12.1143 10.3262 11.7292 10.8213 11.2383C11.3164 10.7432 11.7015 10.1698 11.9766 9.51807C12.2559 8.86637 12.3955 8.16602 12.3955 7.41699C12.3955 6.66797 12.2559 5.96761 11.9766 5.31592C11.6973 4.66423 11.3101 4.09082 10.8149 3.5957C10.3241 3.10059 9.75065 2.71549 9.09473 2.44043C8.44303 2.16113 7.74268 2.02148 6.99365 2.02148C6.24463 2.02148 5.54427 2.16113 4.89258 2.44043C4.24089 2.71549 3.6696 3.10059 3.17871 3.5957C2.68783 4.09082 2.30273 4.66423 2.02344 5.31592C1.74837 5.96761 1.61084 6.66797 1.61084 7.41699C1.61084 8.16602 1.74837 8.86637 2.02344 9.51807C2.30273 10.1698 2.68783 10.7432 3.17871 11.2383C3.67383 11.7292 4.24723 12.1143 4.89893 12.3936C5.55062 12.6729 6.25098 12.8125 7 12.8125Z" fill="#007AFF"/>
</svg>
