<svg width="14" height="16" viewBox="0 0 14 16" fill="none" xmlns="http://www.w3.org/2000/svg">
<g id="file-type-sass 1">
<path id="Vector" d="M11.4231 8.786C11.0384 8.78658 10.6589 8.88711 10.3132 9.08C10.205 8.87472 10.1214 8.65374 10.0647 8.423C10.0321 8.24213 10.0246 8.05654 10.0424 7.873C10.0798 7.67104 10.1283 7.47197 10.1876 7.277C10.1854 7.2515 10.1609 7.131 9.91463 7.127C9.66832 7.123 9.45613 7.1805 9.43338 7.255C9.3906 7.39107 9.35625 7.53042 9.33057 7.672C9.12671 8.24676 8.87578 8.79821 8.58113 9.319C8.41604 9.0097 8.34814 8.64533 8.38863 8.286C8.42602 8.08404 8.47454 7.88498 8.53388 7.69C8.53169 7.6645 8.50719 7.544 8.26088 7.54C8.01457 7.536 7.80238 7.5935 7.77963 7.668C7.75688 7.7425 7.728 7.918 7.67682 8.085C7.62563 8.252 7.028 9.778 6.87138 10.1715C6.79088 10.3715 6.72132 10.5345 6.67232 10.6445C6.66999 10.6516 6.66706 10.6585 6.66357 10.665C6.61982 10.7595 6.59663 10.811 6.59663 10.811V10.8135C6.56294 10.8825 6.52707 10.9465 6.50913 10.9465C6.47784 10.8036 6.47935 10.654 6.5135 10.512C6.601 9.9825 6.81538 9.1595 6.81319 9.131C6.81319 9.1155 6.85344 8.9725 6.6745 8.8985C6.633 8.87593 6.5864 8.86862 6.54111 8.87757C6.49583 8.88653 6.45408 8.91131 6.42163 8.9485C6.40588 8.9485 6.39494 8.992 6.39494 8.992C6.39494 8.992 6.58963 8.0665 6.0235 8.0665C5.80304 8.11718 5.59368 8.21773 5.40772 8.36225C5.22177 8.50676 5.06298 8.69232 4.94069 8.908C4.78844 9.0025 4.46425 9.2045 4.11732 9.422C3.98607 9.5065 3.84869 9.591 3.72138 9.672C3.71263 9.662 3.70344 9.649 3.69469 9.639C3.00563 8.8 1.73907 8.208 1.79375 7.0855C1.81388 6.6765 1.93682 5.6025 4.22582 4.298C6.10969 3.237 7.609 3.531 7.86844 4.183C8.23988 5.114 7.06519 6.8425 5.11875 7.093C4.90342 7.14293 4.68102 7.1369 4.468 7.07537C4.25498 7.01383 4.05678 6.89836 3.88807 6.7375C3.78525 6.6095 3.7695 6.602 3.73144 6.6275C3.66888 6.666 3.70913 6.781 3.73144 6.8475C3.8057 7.00107 3.90613 7.13608 4.02681 7.24455C4.14749 7.35301 4.28597 7.43273 4.43407 7.479C5.19979 7.66811 5.99815 7.57769 6.7165 7.2205C7.89775 6.699 8.8165 5.249 8.547 4.0345C8.27619 2.802 6.48638 2.3955 4.79238 3.0845C3.73133 3.49254 2.75093 4.13525 1.90707 4.976C0.97388 5.9735 0.826442 6.84 0.886817 7.2035C1.10557 8.4925 2.65913 9.331 3.28082 9.9535C3.24932 9.974 3.22044 9.992 3.19594 10.007C2.88488 10.1835 1.69925 10.892 1.40219 11.641C1.06663 12.491 1.456 13.0985 1.71325 13.1805C2.10088 13.2865 2.50781 13.2516 2.87723 13.0806C3.24665 12.9096 3.56012 12.611 3.77388 12.2265C3.95591 11.9076 4.0678 11.5432 4.10002 11.1642C4.13224 10.7852 4.08384 10.403 3.95894 10.05C3.95683 10.0443 3.95387 10.039 3.95019 10.0345L4.19388 9.871C4.35269 9.7635 4.50932 9.664 4.64363 9.582C4.55255 9.88222 4.49908 10.1957 4.48482 10.513C4.45389 10.9994 4.58414 11.4813 4.84969 11.863C4.8901 11.9028 4.93701 11.9329 4.9877 11.9518C5.03839 11.9707 5.09186 11.9779 5.145 11.973C5.4075 11.973 5.52782 11.723 5.6595 11.426C5.8205 11.063 5.96575 10.641 5.96575 10.641C5.96575 10.641 5.78463 11.7815 6.27682 11.7815C6.45575 11.7815 6.63688 11.5155 6.71782 11.3815V11.384C6.71782 11.384 6.72219 11.3765 6.73138 11.3585L6.76025 11.305V11.3C6.832 11.157 6.993 10.832 7.23232 10.2925C7.54119 9.597 7.83869 8.7275 7.83869 8.7275C7.86739 8.91859 7.90699 9.10732 7.95725 9.2925C8.02931 9.51697 8.11453 9.73563 8.21232 9.947C8.14057 10.062 8.09594 10.126 8.09594 10.126L8.09813 10.1285C8.03994 10.2155 7.97738 10.31 7.90782 10.402C7.70085 10.662 7.50883 10.9371 7.33294 11.2255C7.30681 11.2739 7.29783 11.3319 7.30783 11.3877C7.31782 11.4434 7.34605 11.4927 7.38675 11.5255C7.47885 11.5803 7.58383 11.6001 7.68644 11.582C7.84107 11.572 7.99313 11.5323 8.13619 11.4645C8.27445 11.4089 8.40488 11.3306 8.52338 11.232C8.64554 11.1353 8.74388 11.0043 8.80893 10.8515C8.87398 10.6988 8.90356 10.5296 8.89482 10.36C8.88106 10.1464 8.83332 9.9375 8.75394 9.7435C8.77625 9.7075 8.79769 9.672 8.81869 9.636C9.06743 9.21169 9.29161 8.76925 9.48982 8.3115C9.51851 8.50259 9.55812 8.69132 9.60838 8.8765C9.66781 9.07048 9.74097 9.2586 9.82713 9.439C9.54098 9.6906 9.31559 10.0213 9.17219 10.4C9.03132 10.8655 9.14069 11.075 9.34719 11.1235C9.46019 11.1324 9.57317 11.106 9.674 11.047C9.82226 10.9913 9.96193 10.9093 10.0879 10.804C10.2207 10.7144 10.3319 10.5885 10.4116 10.4376C10.4912 10.2867 10.5368 10.1155 10.5442 9.9395C10.5343 9.76378 10.4995 9.59105 10.4414 9.428C10.819 9.2594 11.2284 9.20565 11.6296 9.272C12.6945 9.415 12.9049 10.1745 12.8647 10.4945C12.8458 10.6079 12.8059 10.7155 12.7476 10.8098C12.6894 10.9042 12.6141 10.9832 12.5269 11.0415C12.453 11.095 12.4285 11.113 12.4351 11.1515C12.4438 11.208 12.4788 11.205 12.5423 11.195C12.7027 11.138 12.8444 11.0267 12.9484 10.8759C13.0524 10.725 13.114 10.5417 13.125 10.35C13.1587 9.6 12.5322 8.7775 11.4244 8.785L11.4231 8.786ZM3.20688 11.95C2.85338 12.39 2.36119 12.556 2.14857 12.4155C1.92019 12.2655 2.00988 11.6155 2.44388 11.1495C2.70133 10.8846 2.97959 10.6475 3.27513 10.441C3.32675 10.405 3.40288 10.354 3.49388 10.291L3.51838 10.2755L3.57219 10.237C3.64973 10.5339 3.65676 10.849 3.59256 11.1501C3.52837 11.4511 3.39525 11.7272 3.20688 11.95ZM5.77982 9.95C5.65688 10.2925 5.39963 11.17 5.243 11.121C5.10869 11.08 5.02425 10.415 5.21632 9.758C5.31329 9.44173 5.45454 9.14554 5.63457 8.881C5.82707 8.6355 6.03969 8.5535 6.09088 8.6535C6.04418 9.10094 5.93934 9.53791 5.77982 9.95ZM7.903 11.111C7.85138 11.1415 7.80238 11.161 7.78007 11.147C7.76432 11.137 7.80238 11.097 7.80238 11.097C7.80238 11.097 8.06882 10.7695 8.17382 10.6215C8.23419 10.5345 8.30507 10.4325 8.38207 10.317V10.35C8.38207 10.741 8.05088 11.0045 7.90344 11.112L7.903 11.111ZM9.541 10.684C9.50294 10.6535 9.5095 10.551 9.63725 10.2315C9.72608 10.0263 9.85018 9.84367 10.0021 9.6945C10.0254 9.77019 10.0375 9.84977 10.038 9.93C10.0397 10.1008 9.99195 10.2674 9.90213 10.4039C9.8123 10.5404 9.68548 10.639 9.54144 10.6845L9.541 10.684Z" fill="#CD6799"/>
</g>
</svg>
