<svg width="15" height="15" viewBox="0 0 15 15" fill="none" xmlns="http://www.w3.org/2000/svg">
<g id="Vite.js 1" clip-path="url(#clip0_142_1420)">
<path id="Vector" d="M14.621 2.2875L7.88953 14.3248C7.75043 14.5733 7.39336 14.5747 7.25238 14.3276L0.387304 2.28891C0.233436 2.01914 0.46371 1.69277 0.769452 1.74727L7.5082 2.9516C7.55121 2.95945 7.59528 2.95945 7.63828 2.9516L14.2359 1.74914C14.5404 1.69371 14.7721 2.01738 14.621 2.2875Z" fill="url(#paint0_linear_142_1420)"/>
<path id="Vector_2" d="M10.718 0.167579L5.73679 1.14352C5.69703 1.15128 5.66098 1.17204 5.6343 1.20252C5.60761 1.233 5.59181 1.27148 5.58937 1.31191L5.28269 6.48785C5.28104 6.51624 5.28602 6.54462 5.29724 6.57074C5.30846 6.59687 5.32561 6.62002 5.34732 6.63837C5.36904 6.65672 5.39473 6.66977 5.42236 6.67647C5.44999 6.68317 5.4788 6.68335 5.50652 6.67699L6.89355 6.35649C6.92342 6.34962 6.95454 6.35037 6.98404 6.35866C7.01355 6.36694 7.04051 6.38251 7.06243 6.40393C7.08436 6.42534 7.10056 6.45192 7.10955 6.48122C7.11853 6.51053 7.12001 6.54162 7.11386 6.57164L6.70171 8.58949C6.69541 8.62055 6.69728 8.65271 6.70714 8.68283C6.717 8.71295 6.73451 8.73999 6.75796 8.76131C6.7814 8.78263 6.80998 8.79749 6.8409 8.80446C6.87181 8.81142 6.90401 8.81023 6.93433 8.80102L7.79073 8.54051C7.92351 8.5002 8.05124 8.61692 8.02335 8.75285L7.36827 11.9224C7.32749 12.1207 7.59116 12.2288 7.70109 12.0588L7.77433 11.9454L11.8337 3.84422C11.9019 3.70828 11.7844 3.55359 11.6357 3.58242L10.2077 3.85805C10.177 3.86402 10.1453 3.86199 10.1155 3.85215C10.0858 3.84232 10.0591 3.82501 10.038 3.80188C10.0169 3.77876 10.0021 3.75061 9.99506 3.72012C9.98798 3.68963 9.98886 3.65783 9.99761 3.62777L10.9292 0.397852C10.938 0.367693 10.9389 0.335787 10.9317 0.305208C10.9245 0.274629 10.9096 0.246409 10.8884 0.223269C10.8672 0.200129 10.8403 0.182849 10.8105 0.173095C10.7806 0.16334 10.7488 0.161441 10.718 0.167579Z" fill="url(#paint1_linear_142_1420)"/>
</g>
<defs>
<linearGradient id="paint0_linear_142_1420" x1="0.219514" y1="1.31714" x2="8.59769" y2="12.6954" gradientUnits="userSpaceOnUse">
<stop stop-color="#41D1FF"/>
<stop offset="1" stop-color="#BD34FE"/>
</linearGradient>
<linearGradient id="paint1_linear_142_1420" x1="7.12148" y1="0.43242" x2="8.63705" y2="10.8291" gradientUnits="userSpaceOnUse">
<stop stop-color="#FFEA83"/>
<stop offset="0.083" stop-color="#FFDD35"/>
<stop offset="1" stop-color="#FFA800"/>
</linearGradient>
<clipPath id="clip0_142_1420">
<rect width="15" height="15" fill="white"/>
</clipPath>
</defs>
</svg>
